<?xml version="1.0" encoding="utf-8"?>
<!-- Generator: Adobe Illustrator 26.2.1, SVG Export Plug-In . SVG Version: 6.00 Build 0)  -->
<svg version="1.1" id="Lager_1" xmlns="http://www.w3.org/2000/svg" xmlns:xlink="http://www.w3.org/1999/xlink" x="0px" y="0px"
	 viewBox="0 0 1125 957" style="enable-background:new 0 0 1125 957;" xml:space="preserve">
<style type="text/css">
	.st0{stroke:#FFDD0C;stroke-width:3;stroke-miterlimit:10;}
	.st1{fill:#FFDD0D;}
	.st2{font-family:'Rajdhani-Bold';}
	.st3{font-size:150.7036px;}
	.st4{stroke:#FFDD0D;stroke-width:3;stroke-miterlimit:10;}
</style>
<g>
	<rect x="40.74" y="32" class="st0" width="1043.76" height="670.52"/>
	<line class="st0" x1="1084.5" y1="479.02" x2="40.74" y2="479.02"/>
	<line class="st0" x1="1084.5" y1="255.5" x2="40.74" y2="255.5"/>
	<polyline class="st0" points="1084.5,702.52 1084.5,479.02 1084.5,255.5 1084.5,32 	"/>
	<line class="st0" x1="935.26" y1="32" x2="935.26" y2="702.52"/>
	<line class="st0" x1="786.18" y1="32" x2="786.18" y2="702.52"/>
	<line class="st0" x1="637.09" y1="32" x2="637.09" y2="702.52"/>
	<line class="st0" x1="488" y1="32" x2="488" y2="702.52"/>
	<line class="st0" x1="338.92" y1="32" x2="338.92" y2="702.52"/>
	<line class="st0" x1="189.83" y1="32" x2="189.83" y2="702.52"/>
</g>
<text transform="matrix(1 0 0 1 73.2812 187.542)" class="st1 st2 st3">S</text>
<text transform="matrix(1 0 0 1 223.8408 187.9097)" class="st1 st2 st3">S</text>
<text transform="matrix(1 0 0 1 70.8438 414.9575)" class="st1 st2 st3">Q</text>
<text transform="matrix(1 0 0 1 70.8623 637.6924)" class="st1 st2 st3">D</text>
<text transform="matrix(1 0 0 1 218.0205 414.7695)" class="st1 st2 st3">Q</text>
<text transform="matrix(1 0 0 1 231.0928 637.5044)" class="st1 st2 st3">D</text>
<text transform="matrix(1 0 0 1 373.9756 189.7842)" class="st1 st2 st3">R</text>
<text transform="matrix(1 0 0 1 368.1553 416.6436)" class="st1 st2 st3">D</text>
<text transform="matrix(1 0 0 1 353.9316 637.0049)" class="st1 st2 st3">W</text>
<text transform="matrix(1 0 0 1 528.2539 193.3442)" class="st1 st2 st3">D</text>
<text transform="matrix(1 0 0 1 522.4336 420.2041)" class="st1 st2 st3">S</text>
<text transform="matrix(1 0 0 1 520.7441 640.3252)" class="st1 st2 st3">S</text>
<text transform="matrix(1 0 0 1 668.293 190.9712)" class="st1 st2 st3">E</text>
<text transform="matrix(1 0 0 1 662.4727 417.8301)" class="st1 st2 st3">X</text>
<text transform="matrix(1 0 0 1 671.9844 638.1914)" class="st1 st2 st3">Q</text>
<text transform="matrix(1 0 0 1 815.4502 190.9712)" class="st1 st2 st3">M</text>
<text transform="matrix(1 0 0 1 809.6299 417.8301)" class="st1 st2 st3">H</text>
<text transform="matrix(1 0 0 1 819.1426 638.1914)" class="st1 st2 st3">N</text>
<text transform="matrix(1 0 0 1 972.1035 196.9048)" class="st1 st2 st3">D</text>
<text transform="matrix(1 0 0 1 966.2822 423.7642)" class="st1 st2 st3">S</text>
<text transform="matrix(1 0 0 1 975.7949 644.126)" class="st1 st2 st3">S</text>
<rect x="637.09" y="701.93" class="st4" width="149.53" height="223.11"/>
<text transform="matrix(1 0 0 1 666.0547 869.5425)" class="st1 st2 st3">Ö</text>
</svg>
