<?xml version="1.0" encoding="UTF-8"?><svg id="a" xmlns="http://www.w3.org/2000/svg" viewBox="0 0 548.87 318.49"><defs><style>.b{fill:none;}.b,.c{stroke:#ffdd0d;stroke-miterlimit:10;}.d{fill:#fff;font-family:SourceCodePro-Regular, Source Code Pro;font-size:12px;}.c{fill:#ffdd0d;}.e{fill:#ffdd0e;}.f{fill:#ffdd0f;}.g{fill:#1d1d1b;}</style></defs><rect class="g" width="548.87" height="318.49"/><g><rect class="b" x="91.88" y="56.52" width="110.77" height="110.77"/><line class="b" x1="119.16" y1="56.84" x2="119.16" y2="167.29"/><line class="b" x1="147.75" y1="56.73" x2="147.75" y2="167.29"/><line class="b" x1="175.33" y1="56.63" x2="175.33" y2="167.29"/><line class="b" x1="92.37" y1="83.89" x2="203.13" y2="83.89"/><line class="b" x1="92.37" y1="111.9" x2="203.13" y2="111.9"/><line class="b" x1="91.88" y1="139.04" x2="202.65" y2="139.04"/></g><g><rect class="b" x="236.62" y="56.52" width="110.77" height="110.77"/><line class="b" x1="263.9" y1="56.84" x2="263.9" y2="167.29"/><line class="b" x1="292.5" y1="56.73" x2="292.5" y2="167.29"/><line class="b" x1="320.07" y1="56.63" x2="320.07" y2="167.29"/><line class="b" x1="237.11" y1="83.89" x2="347.88" y2="83.89"/><line class="b" x1="237.11" y1="111.9" x2="347.88" y2="111.9"/><line class="b" x1="236.62" y1="139.04" x2="347.39" y2="139.04"/></g><g><rect class="b" x="381.37" y="56.68" width="110.77" height="110.77"/><line class="b" x1="408.65" y1="56.99" x2="408.65" y2="167.44"/><line class="b" x1="437.24" y1="56.89" x2="437.24" y2="167.44"/><line class="b" x1="464.82" y1="56.79" x2="464.82" y2="167.44"/><line class="b" x1="381.86" y1="84.05" x2="492.62" y2="84.05"/><line class="b" x1="381.86" y1="112.06" x2="492.62" y2="112.06"/><line class="b" x1="381.37" y1="139.2" x2="492.13" y2="139.2"/></g><g><rect class="b" x="91.63" y="190.64" width="110.77" height="110.77"/><line class="b" x1="118.91" y1="190.95" x2="118.91" y2="301.4"/><line class="b" x1="147.51" y1="190.85" x2="147.51" y2="301.4"/><line class="b" x1="175.08" y1="190.75" x2="175.08" y2="301.4"/><line class="b" x1="92.12" y1="218.01" x2="202.89" y2="218.01"/><line class="b" x1="92.12" y1="246.02" x2="202.89" y2="246.02"/><line class="b" x1="91.63" y1="273.16" x2="202.4" y2="273.16"/></g><g><rect class="b" x="236.87" y="190.79" width="110.77" height="110.77"/><line class="b" x1="264.15" y1="191.11" x2="264.15" y2="301.56"/><line class="b" x1="292.74" y1="191.01" x2="292.74" y2="301.56"/><line class="b" x1="320.32" y1="190.9" x2="320.32" y2="301.56"/><line class="b" x1="237.36" y1="218.17" x2="348.12" y2="218.17"/><line class="b" x1="237.36" y1="246.18" x2="348.12" y2="246.18"/><line class="b" x1="236.87" y1="273.32" x2="347.63" y2="273.32"/></g><g><rect class="b" x="381.61" y="190.95" width="110.77" height="110.77"/><line class="b" x1="408.89" y1="191.27" x2="408.89" y2="301.72"/><line class="b" x1="437.49" y1="191.16" x2="437.49" y2="301.72"/><line class="b" x1="465.06" y1="191.06" x2="465.06" y2="301.72"/><line class="b" x1="382.1" y1="218.32" x2="492.87" y2="218.32"/><line class="b" x1="382.1" y1="246.34" x2="492.87" y2="246.34"/><line class="b" x1="381.61" y1="273.47" x2="492.38" y2="273.47"/></g><rect class="c" x="94.65" y="59.54" width="21.5" height="21.5"/><rect class="c" x="122.86" y="59.54" width="21.5" height="21.5"/><rect class="c" x="122.86" y="114.69" width="21.5" height="21.5"/><rect class="c" x="239.45" y="87.25" width="21.5" height="21.5"/><rect class="c" x="267.41" y="87.25" width="21.5" height="21.5"/><rect class="c" x="322.94" y="59.55" width="21.5" height="21.5"/><rect class="c" x="384.34" y="114.95" width="21.5" height="21.5"/><rect class="c" x="440.26" y="87.38" width="21.5" height="21.5"/><rect class="c" x="467.96" y="114.95" width="21.5" height="21.5"/><rect class="c" x="94.43" y="276.95" width="21.5" height="21.5"/><rect class="c" x="150.34" y="276.95" width="21.5" height="21.5"/><rect class="c" x="150.34" y="249.12" width="21.5" height="21.5"/><rect class="c" x="239.58" y="276.95" width="21.5" height="21.5"/><rect class="c" x="267.92" y="276.95" width="21.5" height="21.5"/><rect class="c" x="267.92" y="249.12" width="21.5" height="21.5"/><text class="d" transform="translate(391.71 208.11)"><tspan x="0" y="0">1</tspan></text><text class="d" transform="translate(419.61 208.11)"><tspan x="0" y="0">2</tspan></text><text class="d" transform="translate(447.95 208.11)"><tspan x="0" y="0">3</tspan></text><text class="d" transform="translate(475.53 208.11)"><tspan x="0" y="0">4</tspan></text><text class="d" transform="translate(392.18 236.66)"><tspan x="0" y="0">5</tspan></text><text class="d" transform="translate(420.08 236.66)"><tspan x="0" y="0">6</tspan></text><text class="d" transform="translate(448.42 236.66)"><tspan x="0" y="0">7</tspan></text><text class="d" transform="translate(476 236.66)"><tspan x="0" y="0">8</tspan></text><text class="d" transform="translate(392.18 264.43)"><tspan x="0" y="0">9</tspan></text><text class="d" transform="translate(416.76 264.57)"><tspan x="0" y="0">10</tspan></text><text class="d" transform="translate(444.59 264.43)"><tspan x="0" y="0">11</tspan></text><text class="d" transform="translate(471.14 264.43)"><tspan x="0" y="0">12</tspan></text><text class="d" transform="translate(387.07 291.05)"><tspan x="0" y="0">13</tspan></text><text class="d" transform="translate(415.49 291.05)"><tspan x="0" y="0">14</tspan></text><text class="d" transform="translate(443.41 291.19)"><tspan x="0" y="0">15</tspan></text><text class="d" transform="translate(470.27 291.33)"><tspan x="0" y="0">16</tspan></text><polygon class="e" points="32.34 56.84 35.96 64.17 44.05 65.34 38.19 71.05 39.58 79.11 32.34 75.3 25.1 79.11 26.48 71.05 20.63 65.34 28.72 64.17 32.34 56.84"/><polygon class="g" points="105.39 62.54 107.91 67.65 113.55 68.46 109.47 72.44 110.44 78.06 105.39 75.41 100.35 78.06 101.31 72.44 97.23 68.46 102.87 67.65 105.39 62.54"/><rect class="f" x="24.32" y="96.51" width="16.47" height="16.47" transform="translate(-61.09 47.64) rotate(-41.36)"/><rect x="127.87" y="64.56" width="11.48" height="11.48" transform="translate(-10.58 115.06) rotate(-45)"/><polygon points="134.01 118.49 143.39 132.38 123.82 132.38 134.01 118.49"/><text class="d" transform="translate(47.72 72.3)"><tspan x="0" y="0">=</tspan></text><text class="d" transform="translate(47.72 110.22)"><tspan x="0" y="0">=</tspan></text><text class="d" transform="translate(46.7 144.43)"><tspan x="0" y="0">=</tspan></text><polygon class="f" points="32.56 131.47 42.36 145.9 22.14 145.74 32.56 131.47"/></svg>