<?xml version="1.0" encoding="UTF-8"?><svg xmlns="http://www.w3.org/2000/svg" viewBox="0 0 841.89 595.28"><defs><style>.h{stroke:#fcdd14;}.h,.i,.j{stroke-width:7px;}.h,.i,.j,.k{fill:none;stroke-miterlimit:10;}.i{stroke:#009fe3;}.j{stroke:#e30613;}.k{stroke:#d7d7d7;stroke-width:3px;}</style></defs><g id="a"><rect width="841.89" height="595.28"/><g id="b"><rect class="k" x="32.16" y="80.55" width="364.26" height="423.82"/><line class="k" x1="32.16" y1="443.83" x2="396.42" y2="443.83"/><line class="k" x1="32.16" y1="383.28" x2="396.42" y2="383.28"/><line class="k" x1="32.16" y1="322.74" x2="396.42" y2="322.74"/><line class="k" x1="32.16" y1="262.19" x2="396.42" y2="262.19"/><line class="k" x1="32.16" y1="201.65" x2="396.42" y2="201.65"/><line class="k" x1="32.16" y1="141.1" x2="396.42" y2="141.1"/><line class="k" x1="323.56" y1="80.55" x2="323.56" y2="504.38"/><line class="k" x1="250.71" y1="80.55" x2="250.71" y2="504.38"/><line class="k" x1="177.86" y1="80.55" x2="177.86" y2="504.38"/><line class="k" x1="105.01" y1="80.55" x2="105.01" y2="504.38"/></g><g id="c"><line class="h" x1="105.01" y1="141.1" x2="177.86" y2="141.1"/><line class="h" x1="105.01" y1="259" x2="105.01" y2="198.46"/><line class="h" x1="323.56" y1="201.65" x2="323.56" y2="141.1"/><line class="h" x1="323.56" y1="383.28" x2="323.56" y2="322.74"/><line class="h" x1="105.01" y1="201.65" x2="105.01" y2="141.1"/><line class="h" x1="250.71" y1="383.28" x2="323.56" y2="383.28"/></g><g id="d"><g><line class="i" x1="177.86" y1="141.1" x2="250.71" y2="141.1"/><line class="i" x1="250.71" y1="141.1" x2="323.56" y2="141.1"/><line class="i" x1="105.01" y1="262.19" x2="177.86" y2="262.19"/><line class="i" x1="177.86" y1="262.19" x2="250.71" y2="262.19"/><line class="i" x1="250.71" y1="262.19" x2="323.56" y2="262.19"/><line class="i" x1="177.86" y1="383.28" x2="250.71" y2="383.28"/><line class="i" x1="105.01" y1="383.28" x2="177.86" y2="383.28"/><line class="i" x1="323.56" y1="322.74" x2="323.57" y2="259.82"/></g></g><g id="e"><line class="j" x1="177.86" y1="201.65" x2="250.71" y2="201.65"/><line class="j" x1="250.71" y1="201.65" x2="323.56" y2="201.65"/><line class="j" x1="323.56" y1="322.74" x2="396.42" y2="322.74"/><line class="j" x1="177.86" y1="443.83" x2="250.71" y2="443.83"/><line class="j" x1="396.42" y1="320.56" x2="396.42" y2="393.41"/><line class="j" x1="396.42" y1="370.98" x2="396.42" y2="443.83"/></g></g><g id="f"><g id="g"><rect class="k" x="449.49" y="80.55" width="364.26" height="423.82"/><line class="k" x1="813.75" y1="443.83" x2="449.49" y2="443.83"/><line class="k" x1="813.75" y1="383.28" x2="449.49" y2="383.28"/><line class="k" x1="813.75" y1="322.74" x2="449.49" y2="322.74"/><line class="k" x1="813.75" y1="262.19" x2="449.49" y2="262.19"/><line class="k" x1="813.75" y1="201.65" x2="449.49" y2="201.65"/><line class="k" x1="813.75" y1="141.1" x2="449.49" y2="141.1"/><line class="k" x1="522.34" y1="80.55" x2="522.34" y2="504.38"/><line class="k" x1="595.2" y1="80.55" x2="595.2" y2="504.38"/><line class="k" x1="668.05" y1="80.55" x2="668.05" y2="504.38"/><line class="k" x1="740.9" y1="80.55" x2="740.9" y2="504.38"/></g><g><line class="j" x1="813.75" y1="443.83" x2="668.05" y2="443.83"/><line class="j" x1="740.9" y1="322.74" x2="595.2" y2="322.74"/><line class="j" x1="813.75" y1="326.89" x2="813.75" y2="201.65"/><line class="j" x1="740.9" y1="201.65" x2="813.75" y2="201.65"/></g><g><line class="h" x1="740.9" y1="201.65" x2="740.9" y2="322.74"/><line class="h" x1="595.2" y1="141.1" x2="740.9" y2="141.1"/><line class="h" x1="522.34" y1="262.19" x2="745.22" y2="262.19"/><line class="h" x1="522.34" y1="383.28" x2="668.05" y2="383.28"/></g><line class="i" x1="595.2" y1="141.1" x2="522.34" y2="141.1"/><line class="i" x1="740.9" y1="262.19" x2="740.9" y2="141.1"/><line class="i" x1="740.9" y1="383.28" x2="668.05" y2="383.28"/><line class="i" x1="740.9" y1="322.74" x2="740.9" y2="383.28"/></g></svg>