<?xml version="1.0" encoding="UTF-8"?><svg id="a" xmlns="http://www.w3.org/2000/svg" viewBox="0 0 279.78 50.64"><defs><style>.b{stroke:#fcdd17;stroke-miterlimit:10;}.c{fill:#fcdd17;}</style></defs><rect class="b" x=".5" y=".5" width="278.78" height="49.64"/><g><path class="c" d="M12.71,30.54V14.79h2.21l5.04,9.89,1.51,3.26h.05c-.03-.78-.08-1.6-.16-2.46-.07-.86-.11-1.7-.11-2.53V14.79h1.92v15.74h-2.21l-5.04-9.89-1.51-3.26h-.05c.03,.8,.08,1.62,.16,2.45,.07,.83,.11,1.66,.11,2.47v8.23h-1.92Z"/><path class="c" d="M29.25,30.83c-.72,0-1.38-.13-1.99-.4-.61-.26-1.09-.64-1.44-1.14-.35-.5-.53-1.09-.53-1.78,0-1.31,.66-2.31,1.97-2.99,1.31-.68,3.47-1.14,6.48-1.38-.02-.53-.12-1.02-.32-1.46-.2-.45-.52-.8-.97-1.07-.45-.26-1.05-.4-1.8-.4-.5,0-.99,.07-1.48,.2-.49,.14-.95,.31-1.39,.53-.44,.22-.84,.44-1.21,.66l-.77-1.34c.38-.26,.85-.52,1.4-.78,.55-.26,1.15-.48,1.79-.65,.64-.17,1.3-.25,1.99-.25,1.07,0,1.96,.2,2.65,.6,.7,.4,1.22,.96,1.56,1.67,.34,.71,.52,1.56,.52,2.53v7.15h-1.61l-.17-1.58h-.07c-.64,.51-1.36,.95-2.16,1.32-.8,.37-1.62,.55-2.45,.55Zm.53-1.58c.67,0,1.34-.15,1.99-.46,.66-.3,1.31-.73,1.97-1.27v-3.07c-1.66,.14-2.97,.34-3.92,.6-.95,.26-1.62,.58-2.02,.97-.39,.39-.59,.84-.59,1.36,0,.43,.12,.79,.36,1.07,.24,.28,.56,.48,.95,.61s.81,.19,1.26,.19Z"/><path class="c" d="M54.95,28.04v-4.68h-4.37v-1.49h4.37v-4.68h1.58v4.68h4.37v1.49h-4.37v4.68h-1.58Z"/><path class="c" d="M81.83,30.83c-1.31,0-2.48-.32-3.5-.97s-1.83-1.58-2.42-2.8c-.59-1.22-.89-2.68-.89-4.39s.3-3.16,.9-4.38,1.42-2.16,2.47-2.81c1.05-.65,2.25-.97,3.61-.97,1.04,0,1.91,.2,2.62,.61,.7,.41,1.28,.84,1.73,1.31l-1.13,1.27c-.38-.42-.83-.76-1.33-1.03-.5-.27-1.13-.41-1.88-.41-.98,0-1.83,.26-2.57,.78-.74,.52-1.31,1.25-1.72,2.2-.41,.94-.61,2.07-.61,3.38s.19,2.47,.58,3.43c.38,.96,.94,1.7,1.66,2.23,.72,.53,1.59,.79,2.62,.79,.54,0,1.06-.08,1.56-.25,.5-.17,.89-.4,1.18-.68v-4.1h-3.14v-1.66h4.99v6.62c-.5,.51-1.15,.94-1.96,1.3-.81,.35-1.72,.53-2.75,.53Z"/><path class="c" d="M92.24,30.83c-.72,0-1.38-.13-1.99-.4-.61-.26-1.09-.64-1.44-1.14-.35-.5-.53-1.09-.53-1.78,0-1.31,.66-2.31,1.97-2.99,1.31-.68,3.47-1.14,6.48-1.38-.02-.53-.12-1.02-.32-1.46-.2-.45-.52-.8-.97-1.07-.45-.26-1.05-.4-1.8-.4-.5,0-.99,.07-1.48,.2-.49,.14-.95,.31-1.39,.53-.44,.22-.84,.44-1.21,.66l-.77-1.34c.38-.26,.85-.52,1.4-.78,.55-.26,1.15-.48,1.79-.65,.64-.17,1.3-.25,1.99-.25,1.07,0,1.96,.2,2.65,.6,.7,.4,1.22,.96,1.56,1.67,.34,.71,.52,1.56,.52,2.53v7.15h-1.61l-.17-1.58h-.07c-.64,.51-1.36,.95-2.16,1.32-.8,.37-1.62,.55-2.45,.55Zm.53-1.58c.67,0,1.34-.15,1.99-.46,.66-.3,1.31-.73,1.97-1.27v-3.07c-1.66,.14-2.97,.34-3.92,.6-.95,.26-1.62,.58-2.02,.97-.39,.39-.59,.84-.59,1.36,0,.43,.12,.79,.36,1.07,.24,.28,.56,.48,.95,.61s.81,.19,1.26,.19Z"/><path class="c" d="M117.95,28.04v-4.68h-4.37v-1.49h4.37v-4.68h1.58v4.68h4.37v1.49h-4.37v4.68h-1.58Z"/><path class="c" d="M180.95,28.04v-4.68h-4.37v-1.49h4.37v-4.68h1.58v4.68h4.37v1.49h-4.37v4.68h-1.58Z"/><path class="c" d="M202.09,30.54V14.79h2.02v7.9h.07l6.62-7.9h2.28l-8.98,10.73v5.02h-2.02Zm9.31,0l-4.87-8.78,1.22-1.58,5.9,10.37h-2.26Z"/><path class="c" d="M226.98,23.36v-1.49h10.32v1.49h-10.32Z"/><path class="c" d="M252.42,30.54v-1.7h3.91v-12.36h-3.91v-1.68h9.84v1.68h-3.91v12.36h3.91v1.7h-9.84Z"/></g><g><path class="c" d="M164.08,16.31l-5.27,15.76h-2.26l-5.34-15.73h2.11l2.75,8.8c.27,.88,.54,1.75,.81,2.63,.27,.87,.52,1.76,.76,2.67h.1c.25-.91,.51-1.81,.76-2.68,.25-.87,.52-1.75,.79-2.63l2.74-8.81h2.04Zm-2.77,4.8v1.61l-7.22,.02v-1.61l7.22-.02Z"/><path class="c" d="M144.81,16.06c1.14,0,2.2,.18,3.19,.54,.99,.37,1.84,.79,2.55,1.27l-.91,1.3c-.67-.48-1.42-.86-2.23-1.15-.82-.29-1.76-.43-2.83-.43-.99,0-1.73,.19-2.22,.56-.49,.37-.73,.79-.73,1.27,0,.22,.04,.43,.13,.62,.09,.19,.26,.38,.51,.55s.61,.34,1.09,.5c.48,.16,1.12,.32,1.92,.48,1.52,.32,2.66,.75,3.42,1.29,.76,.54,1.14,1.25,1.15,2.11,0,.94-.41,1.73-1.22,2.37-.81,.63-2.02,.95-3.62,.96-.9,0-1.76-.14-2.59-.44-.83-.29-1.54-.64-2.11-1.04l.96-1.27c.53,.38,1.13,.68,1.8,.9,.67,.21,1.38,.32,2.11,.32,.67,0,1.2-.08,1.6-.23,.39-.15,.67-.36,.84-.61,.17-.26,.25-.54,.25-.84,0-.5-.27-.88-.81-1.16-.54-.28-1.4-.54-2.58-.78-1.3-.27-2.29-.57-2.99-.91-.7-.33-1.18-.72-1.44-1.15-.27-.43-.4-.94-.4-1.53,0-.64,.2-1.22,.6-1.74,.4-.52,.98-.94,1.75-1.26,.77-.32,1.71-.48,2.83-.49Z"/></g></svg>