<?xml version="1.0" encoding="UTF-8"?><svg id="a" xmlns="http://www.w3.org/2000/svg" viewBox="0 0 841.89 1554"><defs><style>.b{font-size:90.31px;}.b,.c,.d,.e,.f{fill:#fff;}.b,.c,.d,.e,.g,.h{font-family:Rajdhani-Bold, Rajdhani;}.b,.c,.d,.i,.j,.f{stroke-width:3px;}.b,.c,.d,.i,.j,.f,.h,.k{stroke-miterlimit:10;}.b,.c,.d,.f{stroke:#000;}.c{font-size:89.01px;}.d,.h{font-size:87.08px;}.e{font-size:129.99px;}.i{fill:none;}.i,.j{stroke:#ffdd06;}.j{fill:#1d1d1b;}.g{font-size:72px;}.g,.h,.k{fill:#ffdd06;}.h,.k{stroke:#1d1d1b;}</style></defs><rect width="841.89" height="1554"/><rect class="k" x="46.53" y="534.17" width="161.84" height="250.86" rx="12" ry="12"/><rect class="k" x="255.31" y="534.17" width="161.84" height="250.86" rx="12" ry="12"/><rect class="k" x="442.48" y="378.65" width="161.84" height="250.86" rx="12" ry="12"/><rect class="k" x="637.43" y="534.17" width="161.84" height="250.86" rx="12" ry="12"/><path class="f" d="M108.09,607.21v-53.5c0-1.25,.62-1.87,1.87-1.87h21.36c4.69,0,8.31,1.25,10.86,3.74,2.55,2.49,3.83,6.05,3.83,10.68v3.65c0,5.04-2.35,8.31-7.03,9.79,2.37,.36,4.27,1.32,5.7,2.89,1.42,1.57,2.14,3.81,2.14,6.72v5.34c0,4.63-1.28,8.19-3.83,10.68-2.55,2.49-6.14,3.74-10.77,3.74h-22.25c-1.25,0-1.87-.62-1.87-1.87Zm12.28-32.13h9.08c1.9,0,3.29-.4,4.18-1.2,.89-.8,1.33-2.12,1.33-3.96v-3.47c0-1.84-.43-3.16-1.29-3.96-.86-.8-2.24-1.2-4.14-1.2h-9.17c-.65,0-.98,.33-.98,.98v11.84c0,.65,.33,.98,.98,.98Zm0,24.57h9.97c1.96,0,3.37-.4,4.23-1.2,.86-.8,1.29-2.12,1.29-3.96v-5.16c0-1.84-.44-3.14-1.34-3.92-.89-.77-2.34-1.16-4.36-1.16h-9.79c-.65,0-.98,.33-.98,.98v13.44c0,.65,.33,.98,.98,.98Z"/><path class="f" d="M698.99,607.21v-53.5c0-1.25,.62-1.87,1.87-1.87h21.36c4.69,0,8.31,1.25,10.86,3.74,2.55,2.49,3.83,6.05,3.83,10.68v3.65c0,5.04-2.35,8.31-7.03,9.79,2.37,.36,4.27,1.32,5.7,2.89,1.42,1.57,2.14,3.81,2.14,6.72v5.34c0,4.63-1.28,8.19-3.83,10.68-2.55,2.49-6.14,3.74-10.77,3.74h-22.25c-1.25,0-1.87-.62-1.87-1.87Zm12.28-32.13h9.08c1.9,0,3.29-.4,4.18-1.2,.89-.8,1.33-2.12,1.33-3.96v-3.47c0-1.84-.43-3.16-1.29-3.96-.86-.8-2.24-1.2-4.14-1.2h-9.17c-.65,0-.98,.33-.98,.98v11.84c0,.65,.33,.98,.98,.98Zm0,24.57h9.97c1.96,0,3.37-.4,4.23-1.2,.86-.8,1.29-2.12,1.29-3.96v-5.16c0-1.84-.44-3.14-1.34-3.92-.89-.77-2.34-1.16-4.36-1.16h-9.79c-.65,0-.98,.33-.98,.98v13.44c0,.65,.33,.98,.98,.98Z"/><text class="c" transform="translate(313.61 609.08)"><tspan x="0" y="0">O</tspan></text><text class="c" transform="translate(489.24 599.64)"><tspan x="0" y="0">M</tspan></text><path class="f" d="M116.64,759.05h-7.39c-1.25,0-1.87-.62-1.87-1.87v-53.5c0-1.25,.62-1.87,1.87-1.87h6.68c1.25,0,2.08,.42,2.49,1.25l17.98,33.74h.36v-33.11c0-1.25,.62-1.87,1.87-1.87h7.39c1.25,0,1.87,.62,1.87,1.87v53.5c0,1.25-.63,1.87-1.87,1.87h-6.5c-1.31,0-2.26-.59-2.85-1.78l-17.8-33.11h-.36v33.02c0,1.25-.62,1.87-1.87,1.87Z"/><path class="f" d="M350.92,759.05h-29.28c-1.25,0-1.87-.62-1.87-1.87v-53.5c0-1.25,.62-1.87,1.87-1.87h7.57c1.25,0,1.87,.62,1.87,1.87v44.51c0,.65,.36,.98,1.07,.98h18.78c1.19,0,1.78,.65,1.78,1.96v6.05c0,1.25-.59,1.87-1.78,1.87Z"/><rect class="k" x="257.32" y="4.01" width="158.33" height="245.41" rx="12" ry="12"/><text class="b" transform="translate(310.85 79.96) scale(.96 1)"><tspan x="0" y="0">A</tspan></text><text class="d" transform="translate(312.81 229.77)"><tspan x="0" y="0">D</tspan></text><line class="i" x1="334.15" y1="899.46" x2="334.15" y2="1445.44"/><line class="i" x1="540.01" y1="899.46" x2="540.01" y2="1445.44"/><line class="i" x1="151.92" y1="1275.38" x2="697.9" y2="1275.38"/><line class="i" x1="151.92" y1="1069.52" x2="697.9" y2="1069.52"/><text class="e" transform="translate(204.47 1020.02)"><tspan x="0" y="0">L</tspan></text><text class="e" transform="translate(403.25 1020.02)"><tspan x="0" y="0">D</tspan></text><text class="e" transform="translate(594.07 1020.02)"><tspan x="0" y="0">V</tspan></text><text class="e" transform="translate(585.63 1218.55)"><tspan x="0" y="0">A</tspan></text><text class="e" transform="translate(404.09 1218.55)"><tspan x="0" y="0">O</tspan></text><text class="e" transform="translate(204.47 1218.55)"><tspan x="0" y="0">N</tspan></text><text class="e" transform="translate(204.47 1405.26)"><tspan x="0" y="0">M</tspan></text><text class="e" transform="translate(403.25 1405.26)"><tspan x="0" y="0">B</tspan></text><text class="e" transform="translate(594.07 1405.26)"><tspan x="0" y="0">H</tspan></text><text class="h" transform="translate(449.45 152.22)"><tspan x="0" y="0">=</tspan></text><polyline class="j" points="660.31 130.98 660.31 238.75 552.54 238.75 552.54 130.98"/><polyline class="j" points="660.31 121.12 552.54 121.12 552.54 13.35 660.31 13.35"/><text class="c" transform="translate(499.36 463.04)"><tspan x="0" y="0">D</tspan></text><text class="c" transform="translate(695.61 748.65)"><tspan x="0" y="0">O</tspan></text><text class="g" transform="translate(40.66 157.16)"><tspan x="0" y="0">Om:</tspan></text><text class="g" transform="translate(42.61 476.91)"><tspan x="0" y="0">Vad är:</tspan></text></svg>