<?xml version="1.0" encoding="UTF-8"?><svg id="a" xmlns="http://www.w3.org/2000/svg" viewBox="0 0 325.44 366.13"><defs><style>.b{fill:#ffdd06;}.c{stroke-width:3px;}.c,.d{fill:none;stroke:#8c8c8c;stroke-miterlimit:10;}.d{stroke-width:2px;}</style></defs><path class="c" d="M312.32,364.6c-.32,.02-.64,.03-.96,.03H14.08c-.32,0-.64-.01-.96-.03-9.44-.55-14.63-9.74-9.76-16.69L121.7,179.3V16.33h-13.53c-4.08,0-7.41-3.33-7.41-7.41,0-2.04,.83-3.89,2.18-5.24,1.34-1.35,3.19-2.18,5.23-2.18h109.09c4.08,0,7.42,3.34,7.42,7.42,0,2.04-.84,3.89-2.18,5.23-1.34,1.35-3.2,2.18-5.24,2.18h-13.52V179.3l118.33,168.61c4.88,6.95-.31,16.14-9.75,16.69Z"/><line class="d" x1="15.6" y1="330.47" x2="40.98" y2="330.95"/><line class="d" x1="33.53" y1="305.62" x2="58.9" y2="306.1"/><line class="d" x1="50.98" y1="280.77" x2="76.36" y2="281.25"/><line class="d" x1="67.24" y1="255.92" x2="92.62" y2="256.4"/><line class="d" x1="84.91" y1="231.07" x2="110.29" y2="231.55"/><line class="d" x1="102.84" y1="206.22" x2="128.21" y2="206.7"/><line class="d" x1="120.29" y1="181.37" x2="145.67" y2="181.85"/><line class="d" x1="122.5" y1="156.64" x2="147.88" y2="156.64"/><line class="d" x1="122.02" y1="131.91" x2="147.4" y2="131.9"/><line class="d" x1="122.02" y1="107.06" x2="147.4" y2="107.06"/><line class="d" x1="122.01" y1="82.22" x2="147.39" y2="82.21"/><line class="d" x1="121.54" y1="57.37" x2="146.92" y2="57.37"/><line class="d" x1="121.06" y1="32.53" x2="146.44" y2="32.52"/><line class="d" x1="120.75" y1="16.39" x2="146.13" y2="16.38"/><path class="b" d="M290.73,322.73c1.45,2.11,1.78,4.32,.97,6.6-.81,2.29-2.6,4.2-5.38,5.73l-33.94,18.7c-2.78,1.53-5.51,2.11-8.19,1.75-2.68-.37-4.74-1.61-6.2-3.72l-59.8-86.87c-1.45-2.11-1.76-4.32-.92-6.63,.84-2.3,2.65-4.22,5.43-5.76l33.6-18.52c2.78-1.53,5.49-2.1,8.14-1.72,2.65,.38,4.7,1.63,6.16,3.75l15.41,22.38-11.83,6.52-14.87-21.61-28.76,15.84,25.82,37.52,31.56-17.39c2.78-1.53,5.49-2.12,8.12-1.75,2.64,.36,4.68,1.6,6.14,3.71l28.54,41.46Zm-12.36,5.74l-27.52-39.98-29.1,16.03,27.52,39.98,29.1-16.03Z"/><path class="b" d="M171.55,127.46c3.05,0,5.47,1.14,7.25,3.43,1.78,2.29,2.67,5.38,2.67,9.28,0,5.24-1.82,9.19-5.45,11.83-3.63,2.65-7.7,3.97-12.21,3.97-3.05,0-5.81-1.14-8.27-3.42-2.46-2.28-3.69-5.12-3.69-8.52,0-2.55,.58-4.67,1.73-6.37,1.16-1.7,2.58-2.55,4.27-2.55,1.78,0,3.22,.7,4.34,2.11,1.11,1.41,1.67,3.25,1.67,5.53,0,1.65-.22,2.92-.65,3.79-.43,.87-.99,1.77-1.69,2.68-.7,.92-1.12,1.51-1.27,1.78-.15,.27-.22,.69-.22,1.27,0,.8,.41,1.44,1.25,1.91,.83,.47,1.82,.7,2.98,.7,2.13,0,3.74-1.18,4.82-3.55,1.08-2.37,1.62-5.52,1.62-9.46,0-3.49-.59-6.58-1.76-9.29-1.17-2.7-2.76-4.06-4.78-4.06-.71,0-1.38,.13-2,.4-.56,.31-1.11,.63-1.65,.94-.15,0-.3-.1-.47-.3-.16-.2-.24-.44-.24-.7,0-.54,.32-.89,.96-1.07,.64-.18,1.37-.27,2.2-.27,2.05,0,3.63-.89,4.76-2.68,1.13-1.79,1.69-4.31,1.69-7.58,0-2.86-.39-5.29-1.18-7.28-.79-1.99-2.07-2.98-3.85-2.98-1.04,0-2.02,.3-2.96,.9-.93,.6-1.4,1.44-1.4,2.51,0,.58,.12,1.07,.36,1.47,.24,.4,.7,.69,1.4,.87,.7,.18,1.3,.7,1.8,1.57,.5,.87,.76,1.97,.76,3.31,0,1.92-.48,3.39-1.44,4.41-.96,1.02-2.22,1.54-3.76,1.54-1.45,0-2.64-.65-3.56-1.94-.92-1.29-1.38-2.96-1.38-5.02s.73-3.96,2.18-5.85c1.45-1.89,3.13-3.24,5.02-4.04,1.9-.8,3.81-1.2,5.74-1.2,3.79,0,6.84,.91,9.14,2.74,2.3,1.83,3.45,4.73,3.45,8.69,0,2.99-.79,5.31-2.38,6.99-1.59,1.67-3.52,2.66-5.8,2.97v.54Z"/><path class="b" d="M190.69,101.52h-.13l-7.51,8.99-1.13-9.87,9.43-11.2h4.98v95.79h-5.65V101.52Z"/><path class="b" d="M67.26,342.23c-.62-2.73-1.13-5.56-.62-8.35,.41-2.24,1.46-4.27,2.47-6.28,3.1-6.19,6.18-12.3,9.92-18.15s7.72-11.3,11.86-16.74,8.51-11.08,13.04-16.39c3.82-4.47,7.82-8.78,11.99-12.93,2.95-2.93,5.91-5.8,9.18-8.37,7.25-5.7,15.01-10.75,22.71-15.8,8.09-5.3,16.25-10.49,24.22-15.99,5.34-3.68,10.67-7.42,14.88-12.4,1.25-1.48,2.78-3.31,2.24-5.39-.62-2.35-3-4.33-4.62-5.99-3.9-4.02-7.64-8.14-11.35-12.33-1.55-1.74-3.36-3.46-5.55-4.35-4.26-1.74-8.21,.69-10.57,4.23-3.7,5.55-5.22,12.69-6.57,19.11-2.28,10.88-3.58,21.96-4.68,33.02-.7,6.97-1.48,13.99-1.79,20.99-.2,4.41,1.13,8.58,3.46,12.29,5.16,8.23,13.85,13.85,21.39,19.68,3.9,3.02,7.79,6.14,11.12,9.8,3.66,4.01,7.25,8.09,10.84,12.16,1.46,1.65,3.26,3.52,4.19,5.42,.65,1.35,.78,2.83,.94,4.3,.39,3.69-.19,6.91-2.62,9.84-3.06,3.69-7.55,6.06-11.87,7.93-10.2,4.42-21.24,6.5-32.1,8.56-8.72,1.65-17.45,3.28-26.25,4.47-3.79,.51-7.65,1.06-11.48,1-1.49-.02-2.96-.26-4.44-.4-2.08-.2-4.16-.33-6.24-.46-4.63-.3-9.27-.58-13.86-1.23-4.32-.62-8.77-1.54-12.69-3.54-3.26-1.66-5.98-4.17-7.16-7.7-.37-1.11-3.26-.3-2.9,.78,2.73,8.17,12.25,10.76,19.84,11.98,4.57,.74,9.19,1.09,13.81,1.39,3.85,.25,7.69,.7,11.54,.94,3.62,.23,7.33-.25,10.91-.69,4.69-.58,9.35-1.32,14.01-2.12,8.79-1.5,17.39-3.02,26.04-4.91,6.11-1.34,12.18-2.93,18.06-5.09,4.91-1.8,9.83-4.02,13.95-7.29,3.05-2.42,5.75-5.63,6.41-9.59,.37-2.26,.07-4.87-.39-7.12-.33-1.62-1.2-3.01-2.2-4.31-2.17-2.82-4.65-5.41-7.02-8.05-3.77-4.21-7.38-8.57-11.65-12.29-3.86-3.36-7.98-6.39-12.03-9.51-7.11-5.47-15.59-11.86-18.06-20.96-.6-2.2-.73-4.41-.57-6.67,.26-3.58,.56-7.16,.87-10.74,.57-6.58,1.22-13.15,2.01-19.71,1.18-9.83,2.55-19.74,5.15-29.3,.86-3.18,1.86-6.36,3.32-9.31,.54-1.08,1.13-2.14,1.85-3.12,.49-.67,1.36-1.58,1.83-1.9s.51-.33,.79-.47c.4-.19,.06-.04,.2-.08,.1-.03,.19-.06,.29-.08,.43-.1-.17,.03,.1-.02,.23-.04,.49-.04,.28-.04,.19,0,.37,0,.56,.03,.3,.03,0-.03,.4,.07,.22,.05,.43,.11,.64,.18,1.89,.65,3.78,2.46,5.21,4.06,3.68,4.16,7.39,8.25,11.26,12.24,1.54,1.59,4.06,3.57,4.53,5.87,.37,1.79-1.57,3.66-2.76,4.98-1.85,2.05-3.85,3.86-6.03,5.55-6.9,5.32-14.29,10.02-21.59,14.78-8.26,5.39-16.56,10.71-24.63,16.38-3.39,2.38-6.74,4.82-9.95,7.45-3.52,2.88-6.72,6.14-9.9,9.38-9.03,9.2-17.02,19.31-24.77,29.6-4.16,5.53-8.18,11.16-11.81,17.06s-6.5,11.64-9.37,17.65c-.88,1.84-1.66,3.74-1.9,5.78-.32,2.68,.17,5.39,.75,8,.25,1.11,3.16,.37,2.9-.78h0Z"/><path class="b" d="M191.19,32.21c-.59,1.73-1.07,2.7-1.43,2.91-.42,1.38-.97,2.45-1.64,3.2-.67,.76-1.16,1.54-1.47,2.36h-.63l-.17,.78-2.4,2.53-1.56,2.52-2.06,1.3-4.93,4.53-.76,1.42-1.14,.39-.42,1.36-.76,.39v.78c-1.21,.3-1.81,1.23-1.81,2.78l3.24,3.62,4.17,5.31,2.4,2.33v.71l.76,1.55,.97,1.1,.67,2.07c.87,1.21,1.31,2.55,1.31,4.01l-.34,2.65v.26c0,.43-.29,1.27-.88,2.52-.59,1.25-1.17,1.88-1.73,1.88-.17,0-.42-.11-.76-.32l-.67,.97c-.06,.09-.17,.17-.34,.26l-1.39,.78-2.78-.39c-.39,0-.97,.22-1.73,.65l-.42-.91-.88,.65-1.6-.65-1.39,.78-1.31-.52-.93,.39c-1.35,0-2.41-.35-3.2-1.04l-.63,.13-3.87-.78-1.26-1.88-1.14-.39v-1.1l-1.22,.58-.25-1.1-.67-.13v-1.29c-.93-1.34-1.39-2.09-1.39-2.27,0-.13,.08-.47,.25-1.04,.17-.56,.25-1.14,.25-1.75,.81-1.99,1.25-3.41,1.31-4.27l.42-.65,.08-1.17,.97-.97c.76-1.55,1.22-2.48,1.39-2.78l.42,.26,.84-1.29,1.05-.13c-.06-.17-.08-.39-.08-.65,0-.6,.46-.97,1.39-1.1l-.46-.91c.36-.43,.74-.65,1.14-.65h.34c.31,0,.88-.58,1.73-1.75,.06-.3,.52-.97,1.39-2.01-.11-.47-.31-.82-.59-1.04l-2.78-2.14-1.22-1.75c-.93-.39-1.56-1.36-1.89-2.91l-.59-.26-.25-1.81h-.72c-.23-.91-.67-1.7-1.35-2.39l-1.39-5.05-.97-2.01c-.39-.35-.59-.65-.59-.91,0-.35,.14-.52,.42-.52,.06-.26,.14-.54,.25-.84,.11-.3,.17-.52,.17-.65,0-.17-.08-.65-.25-1.42,.42-.26,.72-1.23,.88-2.91l.93-1.36,.13-1.17c.03-.34,.34-1.1,.93-2.27h.42c.25-1.68,.66-2.52,1.22-2.52h.08v-.13c0-.39,.32-.99,.97-1.81,.65-.82,1.18-1.23,1.6-1.23l.46,.13,3.24-4.14c.9-.09,1.88-.47,2.95-1.17l.42,.26,.76-1.29c.06-.09,.51-.31,1.37-.68,.86-.37,1.76-.59,2.72-.68l.34,.52,1.64-.78,1.73,.26c.22,.13,.55,.22,.97,.26l1.35,.13,4.59,1.23c.51,.39,.9,.86,1.18,1.42l1.31,.26c.2,.82,.67,1.4,1.43,1.75s1.23,.86,1.43,1.55c1.09,2.55,1.87,4.23,2.32,5.05l-.08,.97,.51,2.07-.42,.71,.42,2.4Zm-9.89,48.1v-.26c0-1.42-.6-3.41-1.81-5.96l-1.56-1.23-1.05-2.4-2.74-2.2-1.64-3.11-2.95-2.07c-1.1-1.68-1.81-2.52-2.15-2.52-.2,0-.36,.26-.5,.78-.17,0-.83,.41-1.98,1.23-1.15,.82-1.94,1.92-2.36,3.3-.03,.04-.28,.26-.76,.65l-2.86,2.27-.67,1.68,.25,.97-.67,.52c-.62,.13-.99,.65-1.12,1.55-.13,.91-.37,1.47-.72,1.68-.35,.22-.53,.5-.53,.84,0,1.21,.06,2.59,.19,4.14,.13,1.55,.76,2.74,1.9,3.56,1.14,.82,1.72,1.23,1.75,1.23h1.81l.84,.78,1.9-.39,1.73,.65,1.31-.26,1.56,.39,2.65-.39,1.14,.26,3.12-.26,.17-1.04,.93,.52c.17,.17,.44,.26,.8,.26,.81,0,2.08-1.1,3.79-3.3l.25-1.88Zm7.32-49.2c.34-.78,.51-1.49,.51-2.14,0-.52-.22-1.23-.65-2.14-.44-.91-.71-1.68-.82-2.33-.45-.65-1.04-1.54-1.77-2.69-.73-1.14-1.15-1.74-1.26-1.78-.11-.04-.91-.11-2.4-.19l-.76-1.04-.42,.65-2.36-1.75-1.52,.71-.72-.71-.59,.26-.34-.91-.63-.26-.59,2.01,2.4,3.17-.25,1.17,.51,2.01c-.37,.95-.87,1.42-1.52,1.42-.2,0-.46-.09-.8-.26l-1.22-3.17-.84,.52-.34-.65-2.15,.13-.8,1.1-.84-.58-.25,.58c-.87,0-1.66,.3-2.36,.91,.25,.56-1.32,1.4-4.72,2.53-.2,.95-.52,1.42-.97,1.42-.73,0-1.14,.67-1.22,2.01-.2,.22-.48,.39-.84,.52l-.5,2.78-.88,.71-.42,2.65v1.55l1.14,1.75,.67,5.44,1.39,1.04,.17,1.04c.59,1.25,1.08,2.33,1.47,3.24l.93,.39c.34,.17,.63,.43,.88,.78l.93,1.49,1.81,.52,2.23,1.94,.88-.39,.34,.39v-1.94l2.78-2.14,.42-2.14,1.56-.39c.17-.34,.55-.88,1.14-1.62l.63-.78c.17-.22,.34-.46,.53-.74,.18-.28,.4-.49,.65-.62l.97-.45c.36-.22,.69-.54,.97-.97l1.14-1.81,1.64-.45v-.78l1.39-.65c.14-.99,.42-1.49,.84-1.49l.42,.13c.14,0,.24-.04,.29-.13l.08-.78h.67c.2,0,.35-.53,.46-1.59,.11-1.06,.42-1.63,.93-1.72,.5-.39,.76-.88,.76-1.49,0-.34-.03-.6-.08-.78,.87-1.08,1.3-1.83,1.3-2.27v-.26Z"/><line class="d" x1="2.44" y1="355.32" x2="27.81" y2="355.8"/></svg>