<?xml version="1.0" encoding="UTF-8"?><svg id="a" xmlns="http://www.w3.org/2000/svg" viewBox="0 0 879.51 544.78"><defs><style>.b{fill:#ffdd06;}.b,.c{stroke:#1d1d1b;stroke-miterlimit:10;stroke-width:3px;}.c{fill:none;}.d{fill:#adca0d;font-family:Rajdhani-Bold, Rajdhani;font-size:48px;}</style></defs><g><rect class="b" x="699.1" y="66.51" width="178.91" height="178.91"/><circle class="c" cx="788.56" cy="158.09" r="65.15"/></g><g><rect class="b" x="233.66" y="64.38" width="178.91" height="178.91"/><path class="c" d="M368.8,209.61c-12.69,7.09-27.93,9.73-43.24,6.33-33.12-7.35-54.02-40.16-46.67-73.28,7.35-33.12,40.16-54.02,73.28-46.67"/></g><g><rect class="b" x="459.48" y="66.51" width="178.91" height="178.91"/><circle class="c" cx="548.93" cy="155.96" r="65.86"/><line class="c" x1="511.85" y1="103.26" x2="608.27" y2="221.82"/></g><g><rect class="b" x="3.11" y="62.05" width="178.91" height="178.91"/><path d="M113.92,126.59c0-9.87-6.43-18.31-20.74-18.31-8.82,0-16.85,3.69-22.97,10l-4.61-4.21c6.73-6.82,16.03-11.94,28.02-11.94,17.11,0,27.42,10.4,27.42,23.85,0,21.85-30.18,27.28-26.94,48.94h-6.33c-4-23.25,26.14-29.77,26.14-48.33Zm-30.63,74.71c0-6.4,4.43-9.93,9.12-9.93s9.12,3.53,9.12,9.93-4.43,9.98-9.12,9.98-9.12-3.57-9.12-9.98Z"/></g><rect class="b" x="1.5" y="363.36" width="178.91" height="178.91"/><rect class="b" x="465.81" y="363.36" width="178.91" height="178.91"/><rect class="b" x="233.66" y="364.37" width="178.91" height="178.91"/><rect class="b" x="699.1" y="364.15" width="178.91" height="178.91"/><line class="c" x1="43.6" y1="400.32" x2="90.95" y2="452.81"/><line class="c" x1="163.92" y1="380.01" x2="90.95" y2="452.81"/><line class="c" x1="90.95" y1="514.21" x2="90.95" y2="452.81"/><line class="c" x1="290.13" y1="406.15" x2="352.53" y2="503.68"/><line class="c" x1="278.49" y1="525.49" x2="361.62" y2="387.49"/><line class="c" x1="497.42" y1="410.05" x2="553.65" y2="507.79"/><line class="c" x1="555.27" y1="410.92" x2="484.15" y2="526.53"/><line class="c" x1="554.42" y1="410.49" x2="610.66" y2="508.23"/><line class="c" x1="618.43" y1="401.36" x2="552.68" y2="508.23"/><rect class="c" x="742.41" y="401.36" width="92.29" height="106.67"/><text class="d" transform="translate(6.39 39.43)"><tspan x="0" y="0">Här tar det slut. Vi har nått vår ändpunkt. </tspan></text><text class="d" transform="translate(1.5 343.99)"><tspan x="0" y="0">Vilken stämmer?</tspan></text></svg>