<?xml version="1.0" encoding="UTF-8"?><svg id="a" xmlns="http://www.w3.org/2000/svg" viewBox="0 0 343.62 443.35"><defs><style>.b{fill:none;stroke:#fcdd14;stroke-miterlimit:10;}</style></defs><rect class="b" x=".5" y=".5" width="342.62" height="442.35" rx="26.15" ry="26.15"/><polygon class="b" points="126.85 167.51 126.85 234.9 156.1 234.9 156.1 261.76 126.85 261.76 126.85 287.76 216.77 283.43 211.35 215.18 179.94 216.26 177.77 187.01 201.6 182.67 198.35 162.09 126.85 167.51"/><polygon class="b" points="109.51 138.26 109.51 318.1 240.61 308.35 236.27 245.51 216.77 244.43 212.92 234.9 233.02 234.9 226.52 202.18 210.27 201.09 208.1 193.51 225.44 192.43 216.77 129.59 109.51 138.26"/><polygon class="b" points="144.18 96 171.81 125.25 186.14 90.59 240.61 90.59 251.44 119.84 240.61 348.44 121.43 359.27 67.26 140.42 72.68 102.5 144.18 96"/><polygon class="b" points="52.09 74.33 52.09 378.77 313.19 359.27 295.86 255.26 261.19 255.26 256.43 234.9 283.94 234.9 279.61 182.67 248.46 182.79 251.44 156.67 274.19 157.76 256.43 61.33 52.09 74.33"/><polygon class="b" points="27.18 37.5 140.93 37.5 182.64 52.67 175.06 37.5 286.11 25.58 333.78 393.94 216.77 406.94 159.35 383.1 159.35 412.36 27.18 417.77 27.18 37.5"/></svg>