<?xml version="1.0" encoding="UTF-8"?><svg id="a" xmlns="http://www.w3.org/2000/svg" xmlns:xlink="http://www.w3.org/1999/xlink" viewBox="0 0 720.38 720.38"><defs><style>.j{fill:#ffdd06;}.k{clip-path:url(#h);}.l{font-family:Raleway-Bold, Raleway;font-size:72.13px;}.l,.m,.n{fill:#1d1e1b;}.o{stroke:#7e9197;stroke-width:3px;}.o,.p{stroke-miterlimit:10;}.n{font-family:MyriadPro-Regular, Myriad Pro;font-size:81.31px;}.p{stroke:#1d1e1b;stroke-width:3.81px;}.p,.q{fill:none;}.r{clip-path:url(#b);}.s{clip-path:url(#c);}.t{clip-path:url(#e);}.u{clip-path:url(#d);}.v{clip-path:url(#f);}.w{clip-path:url(#i);}.x{fill:#1d1d1b;}.y{clip-path:url(#g);}</style><clipPath id="b"><rect class="q" x="48.41" y="79.22" width="80.72" height="89.5" transform="translate(-61.88 100.46) rotate(-45.52)"/></clipPath><clipPath id="c"><rect class="q" x="48.41" y="79.22" width="80.72" height="89.5" transform="translate(-61.88 100.46) rotate(-45.52)"/></clipPath><clipPath id="d"><rect class="q" x="462.9" y="116.6" width="108.64" height="97.47" transform="translate(53.6 448.01) rotate(-49.1)"/></clipPath><clipPath id="e"><rect class="q" x="462.9" y="116.6" width="108.64" height="97.47" transform="translate(53.6 448.01) rotate(-49.1)"/></clipPath><clipPath id="f"><rect class="q" x="536.13" y="595.03" width="82.63" height="94.88" transform="translate(-281.58 551.46) rotate(-42)"/></clipPath><clipPath id="g"><rect class="q" x="536.13" y="595.03" width="82.63" height="94.88" transform="translate(-281.58 551.46) rotate(-42)"/></clipPath><clipPath id="h"><rect class="q" x="94.99" y="463.06" width="107.27" height="101.86" transform="translate(-252.7 160.14) rotate(-32.47)"/></clipPath><clipPath id="i"><rect class="q" x="94.99" y="463.06" width="107.27" height="101.86" transform="translate(-252.7 160.14) rotate(-32.47)"/></clipPath></defs><circle class="o" cx="360.19" cy="360.19" r="358.69"/><circle class="o" cx="351.86" cy="359.32" r="254.84"/><circle class="o" cx="351.86" cy="359.32" r="124.8"/><circle class="j" cx="583.11" cy="635.64" r="45.56"/><circle class="j" cx="285.75" cy="262.48" r="47.16"/><circle class="j" cx="149.32" cy="509.86" r="41.02"/><circle class="j" cx="513.38" cy="165.33" r="50.47"/><circle class="j" cx="87.9" cy="125.43" r="41.02"/><g class="r"><g class="s"><text class="n" transform="translate(67.35 135.59) rotate(44.48)"><tspan x="0" y="0">2</tspan></text><text class="n" transform="translate(77.66 145.72) rotate(-135.52) scale(1 -1)"><tspan x="0" y="0">2</tspan></text></g></g><g class="u"><g class="t"><path class="m" d="M532.65,188.21l-31.51-27.29-10.59-9.63-.84,.97,13.54,38.27,3.27,2.83-5.19,.51,27.62-31.88,6.24,5.41-31.54,36.41-7.28-6.31-15.68-45.26,10.62-12.26,47.48,41.13-6.15,7.1Z"/><path class="m" d="M531.96,189.01l-47.48-41.13,10.62-12.26,47.03,9.07,7.28,6.31-31.54,36.41-6.24-5.41,27.62-31.88,.23,5.21-3.27-2.83-39.81-7.95-.84,.97,11.04,9.11,31.51,27.29-6.15,7.1Z"/></g></g><g class="v"><g class="y"><text class="l" transform="translate(567.23 649.2) rotate(48)"><tspan x="0" y="0">7</tspan></text><line class="p" x1="580.83" y1="639.66" x2="606.6" y2="668.28"/><text class="l" transform="translate(570.18 652.47) rotate(-132) scale(1 -1)"><tspan x="0" y="0">7</tspan></text><line class="p" x1="581.08" y1="639.94" x2="555.3" y2="611.32"/></g></g><g class="k"><g class="w"><path class="x" d="M158.8,529.8c1.36-.66,7.57-4.26,9.46-5.72,3.13-2.61,5.48-6.03,6.5-9.94,1.25-4.43,.94-9.56-1.48-15.24l-.2,.13c-.57,4.47-2.98,8.4-7.35,11.12-7.86,4.91-16.6,2.14-21.25-5.32-5.16-8.27-3.71-19.26,5.23-24.84,8.94-5.58,18.98-1.76,25.95,9.39,6,9.61,6.97,18.35,5.27,25.2-1.31,5.39-4.68,10.3-9.05,13.78-1.94,1.68-8.38,5.66-9.83,6.47l-3.24-5.04Zm-8.73-29.01c3.4,5.44,9.08,7.22,14.19,4.03,3.97-2.48,5.84-6.36,5.75-9.94,0-.75-.22-1.55-.81-2.49-4.66-7.46-10.98-11.45-17.16-7.59-5.04,3.15-5.83,9.81-1.97,15.99"/><path class="x" d="M162.05,534.84c-1.38,.94-5.75,3.54-8.12,4.53-5.06,2.35-10.96,3.18-16.37,1.93-6.89-1.55-14.27-6.32-20.18-15.99-6.86-11.22-5.78-21.91,3.21-27.41,8.99-5.5,19.47-1.88,24.55,6.44,4.59,7.5,3.16,16.55-4.75,21.39-4.39,2.69-8.98,3.08-13.24,1.59l-.2,.12c3.99,4.71,8.45,7.28,12.96,8.14,3.95,.84,8.06,.27,11.8-1.36,2.15-1.04,5.94-3.53,7.14-4.45l3.19,5.07Zm-38.21-32.7c-6.22,3.8-5.48,11.24-.89,18.74,.58,.95,1.2,1.5,1.86,1.83,3.17,1.68,7.47,1.74,11.46-.69,5.14-3.14,6.09-9.02,2.75-14.49-3.8-6.22-10.11-8.49-15.18-5.39"/></g></g><g><path class="x" d="M282.12,282.52l3.49-4.49c3.49,3.33,8.4,6.24,15.22,6.24,7.23,0,12.64-3.74,12.64-9.65,0-6.32-6.13-12.14-20.02-12.14l.08-1.92c12.56,0,18.11-6.06,18.11-11.63,0-5.07-4.41-8.32-10.81-8.32-4.99,0-11.39,3.75-14.88,6.83l-1.83-5.83c4.41-3.83,10.14-6.65,16.96-6.65,9.98,0,17.55,4.91,17.55,13.47,0,6.4-4.74,10.48-11.31,12.64v.33c7.07,1.5,13.14,6.15,13.14,13.47,0,9.4-8.65,15.13-19.21,15.13-9.15,0-15.22-3.58-19.13-7.48Z"/><path class="x" d="M270.26,290.01c-10.56,0-19.21-5.74-19.21-15.13,0-7.32,6.07-11.97,13.14-13.47v-.33c-6.57-2.16-11.31-6.24-11.31-12.64,0-8.56,7.57-13.47,17.55-13.47,6.82,0,12.56,2.83,16.96,6.65l-1.45,5.83c-3.49-3.08-10.28-6.83-15.27-6.83-6.4,0-10.81,3.24-10.81,8.32,0,5.57,5.97,11.55,18.53,11.55l-.08,2.01c-13.89,0-20.27,5.82-20.27,12.14,0,5.9,5.41,9.65,12.64,9.65,6.82,0,11.36-2.57,14.85-5.9l3.86,4.15c-3.91,3.91-9.98,7.48-19.13,7.48Z"/></g></svg>