<?xml version="1.0" encoding="UTF-8"?><svg id="a" xmlns="http://www.w3.org/2000/svg" viewBox="0 0 994 700"><defs><style>.b{fill:#adff02;}</style></defs><path class="b" d="M283.03,295.08h51.07v-100.9h-43.07v-32.61c27.69-4.31,41.22-9.23,57.22-19.07h38.76v152.59h41.84v42.45h-145.82v-42.45Z"/><path class="b" d="M568.23,529.47c50.85-41.52,88.17-73.42,88.17-99.3,0-17.15-10.83-25.28-27.68-25.28-14.14,0-25.28,9.03-35.51,18.05l-27.38-27.68c20.76-21.06,40.02-30.69,70.11-30.69,40.92,0,69.51,24.67,69.51,62.59,0,30.69-31.9,64.39-63.19,90.87,10.53-1.2,24.98-2.41,34.3-2.41h38.52v43.33h-146.84v-29.49Z"/><path class="b" d="M534.78,143.55h55.25l-128.41,415.75h-55.25l128.41-415.75Z"/></svg>